Coordinates
version=1
nRows=14
nColumns=24
inDegrees=yes

Units are S.I. units (second, meters, Newtons, ...)
Angles are in degrees.

endheader
time	pelvis_tilt	pelvis_list	pelvis_rotation	pelvis_tx	pelvis_ty	pelvis_tz	hip_flexion_r	hip_adduction_r	hip_rotation_r	knee_angle_r	ankle_angle_r	subtalar_angle_r	mtp_angle_r	hip_flexion_l	hip_adduction_l	hip_rotation_l	knee_angle_l	ankle_angle_l	subtalar_angle_l	mtp_angle_l	lumbar_extension	lumbar_bending	lumbar_rotation
      5.19500000	     -0.27725813	      4.02153431	      1.92102376	      0.96689819	      1.00631185	     -0.26028261	     22.31442819	     -1.64783016	      3.36320194	     -8.92145938	     11.74947037	     -3.36700581	      0.00000000	    -18.06972854	      6.73426200	      3.48916671	     -9.73245132	     14.65279472	     -3.49433065	      0.00000000	    -11.66511084	     -3.10431164	     -8.94200614
      5.20000000	     -0.23007472	      3.86083886	      1.91770285	      0.97426720	      1.00609649	     -0.25977109	     22.28791244	     -1.41810942	      3.19361972	     -9.71327358	     11.37722094	     -3.01500188	      0.00000000	    -18.01789141	      6.48129244	      3.01244523	    -10.70078596	     14.59698230	     -2.74446491	      0.00000000	    -11.62041187	     -2.89639707	     -8.82236334
      5.20500000	     -0.20345304	      3.66203592	      1.90925855	      0.98169042	      1.00598666	     -0.25924712	     22.26440774	     -1.15347845	      3.02072674	    -10.43426500	     10.82270009	     -2.78498641	      0.00000000	    -17.93409922	      6.18707392	      2.51960012	    -11.67214374	     14.42084449	     -2.04388798	      0.00000000	    -11.54070977	     -2.65034072	     -8.69713457
      5.21000000	     -0.18798547	      3.43709023	      1.90410590	      0.98902938	      1.00593803	     -0.25873679	     22.24805431	     -0.86700174	      2.94368369	    -11.11003120	     10.19011386	     -2.70894812	      0.00000000	    -17.77668260	      5.85977721	      1.96151631	    -12.74570622	     14.26639309	     -1.29173911	      0.00000000	    -11.46965987	     -2.36091833	     -8.55092298
      5.21500000	     -0.19247570	      3.18130702	      1.89867231	      0.99639024	      1.00599249	     -0.25822917	     22.23939654	     -0.54883406	      2.92737255	    -11.73558308	      9.47250760	     -2.81434663	      0.00000000	    -17.57608592	      5.49701029	      1.39669688	    -13.84167311	     13.98940081	     -0.60951211	      0.00000000	    -11.37023788	     -2.04231057	     -8.39859118
      5.22000000	     -0.21489942	      2.90603686	      1.90379351	      1.00379655	      1.00615742	     -0.25773279	     22.23193969	     -0.21239229	      2.95659583	    -12.32036999	      8.74066285	     -3.07676493	      0.00000000	    -17.32619973	      5.10277909	      0.80134479	    -14.97638774	     13.59714516	      0.04792636	      0.00000000	    -11.23792470	     -1.70300402	     -8.25122277
      5.22500000	     -0.23931687	      2.63622674	      1.89910471	      1.01107568	      1.00636323	     -0.25723853	     22.24290347	      0.13176181	      3.13239674	    -12.93260144	      8.06037417	     -3.53432850	      0.00000000	    -17.01241153	      4.71065455	      0.17318430	    -16.20431921	     13.16592602	      0.66989503	      0.00000000	    -11.13510268	     -1.36907455	     -8.09330533
      5.23000000	     -0.27567426	      2.36297138	      1.91006779	      1.01843344	      1.00665569	     -0.25678741	     22.24864236	      0.47729478	      3.31151260	    -13.53557273	      7.48433889	     -4.06657694	      0.00000000	    -16.65500638	      4.30072573	     -0.46702535	    -17.47211130	     12.58753931	      1.24344418	      0.00000000	    -10.99520046	     -1.02381144	     -7.93550758
      5.23500000	     -0.30259445	      2.12081333	      1.92729118	      1.02575028	      1.00701175	     -0.25636412	     22.25392491	      0.79533228	      3.50565740	    -14.18390368	      7.07701821	     -4.62786749	      0.00000000	    -16.25906698	      3.91178063	     -1.11254742	    -18.80296586	     11.87660383	      1.73311732	      0.00000000	    -10.87736250	     -0.72182133	     -7.78292645
      5.24000000	     -0.33953831	      1.88594964	      1.93013241	      1.03302560	      1.00737665	     -0.25594559	     22.27769138	      1.11786666	      3.73069822	    -14.87129225	      6.81541152	     -5.19392511	      0.00000000	    -15.80014039	      3.52088687	     -1.80099128	    -20.20509252	     11.07605019	      2.18518519	      0.00000000	    -10.75875609	     -0.41697266	     -7.63824083
      5.24500000	     -0.37407492	      1.67522308	      1.93376971	      1.04029430	      1.00777720	     -0.25553350	     22.29821411	      1.42001434	      3.92959810	    -15.58815198	      6.73663068	     -5.68958899	      0.00000000	    -15.29368822	      3.13933652	     -2.50143239	    -21.66973827	     10.12349742	      2.55788357	      0.00000000	    -10.64342652	     -0.14040692	     -7.50420587
      5.25000000	     -0.40827052	      1.48777648	      1.94111669	      1.04756491	      1.00820262	     -0.25512328	     22.30753099	      1.69898269	      4.07002397	    -16.30622106	      6.82959242	     -6.09059199	      0.00000000	    -14.73920984	      2.76113223	     -3.22327553	    -23.19003606	      9.01511088	      2.86056454	      0.00000000	    -10.52517169	      0.10543102	     -7.36942200
      5.25500000	     -0.42241553	      1.31616249	      1.95424479	      1.05481983	      1.00868088	     -0.25470358	     22.28566567	      1.95897830	      4.11188729	    -17.01798194	      7.06096398	     -6.38813980	      0.00000000	    -14.15761432	      2.37565465	     -3.96534818	    -24.75790931	      7.73614153	      3.06915128	      0.00000000	    -10.43258892	      0.32252101	     -7.22748108
      5.26000000	     -0.52578429	      1.18877968	      1.94596069	      1.06199967	      1.00902933	     -0.25423492	     22.34706131	      2.18405815	      4.21642193	    -17.71673871	      7.39203194	     -6.63207553	      0.00000000	    -13.42042495	      2.01654750	     -4.75332470	    -26.39935512	      6.32210913	      3.23676918	      0.00000000	    -10.24462457	      0.49183486	     -7.11052422
